# xmcd
#
# Track frame offsets:
#	182
#	15035
#	37110
#	60625
#	83075
#	106837
#	124525
#	149425
#	171942
#	192507
#	211100
#	229770
#
# Disc length: 3327 seconds
#
# Revision: 1
# Processed by: cddbd v1.5.1PL0 Copyright (c) Steve Scherf et al.
# Submitted via: audiograbber 1.83.01
#
DISCID=980cfd0c
DTITLE=Various Artist - La Salsa del Siglo 2
DYEAR=2000
DGENRE=Salsa
TTITLE0=Orquesta Latino's Band - Pensando En Ti
TTITLE1=Orquesta Latino's Band - No Me Acostumbro
TTITLE2=Orquesta Latino's Band - Que Locura Enamorarme De ti
TTITLE3=Orquesta Latino's Band - Nacio Varon
TTITLE4=Grupo Son Sabor - Pensando Pecho
TTITLE5=Orquesta Latino's Band - La Guachema
TTITLE6=J.Polo - M.P. Arrieta - Nido De Amor
TTITLE7=Orquesta Latino's Band - Lluvia
TTITLE8=Orquesta Latino's Band - Procura
TTITLE9=Orquesta Latino's Band - Me Gustas
TTITLE10=Grupo Bemba - Una Fotografia
TTITLE11=Orquesta Latino's Band - Juliana
EXTD=YEAR: 2000
EXTT0=
EXTT1=
EXTT2=
EXTT3=
EXTT4=
EXTT5=
EXTT6=
EXTT7=
EXTT8=
EXTT9=
EXTT10=
EXTT11=
PLAYORDER=
